<svg width="64" height="56" viewBox="0 0 64 56" fill="none" xmlns="http://www.w3.org/2000/svg">
<path d="M23.4667 0.953312C9.50857 4.4433 0 15.3363 0 27.9743C0 43.4149 14.3238 56 32 56C49.6152 56 64 43.4149 64 27.9743C64 12.3222 49.5543 -0.157139 31.6343 0.00149536C29.1352 0.00149536 25.4781 0.424526 23.4667 0.953312ZM36.5105 12.3751C39.0095 13.4327 41.3257 16.0766 41.8133 18.1918C42.4229 21.1001 41.5695 23.5325 39.1314 26.0707C34.9257 30.4067 29.0743 30.4067 24.8686 26.0707C20.2971 21.3645 21.2724 15.6536 27.0629 12.5866C29.379 11.3704 34.0724 11.2647 36.5105 12.3751ZM43.1543 31.4643C47.9695 33.2093 51.2 37.281 51.2 41.7228V44.3667H32H12.8V41.7228C12.8 37.3338 15.9695 33.2622 20.7238 31.4643C23.7714 30.301 39.9848 30.301 43.1543 31.4643Z" fill="#308654"/>
</svg>
