<svg width="15" height="9" viewBox="0 0 15 9" fill="none" xmlns="http://www.w3.org/2000/svg">
<path d="M7.96027 0.216961C8.15183 0.0780408 8.41159 0 8.68245 0C8.95331 0 9.21307 0.0780408 9.40462 0.216961L14.0012 3.55155C14.1927 3.69052 14.3003 3.87896 14.3003 4.07546C14.3003 4.27195 14.1927 4.4604 14.0012 4.59936L9.40462 7.93395C9.21197 8.06893 8.95395 8.14363 8.68613 8.14194C8.4183 8.14025 8.1621 8.06232 7.97272 7.92492C7.78333 7.78753 7.6759 7.60168 7.67358 7.40738C7.67125 7.21309 7.77421 7.02591 7.96027 6.88615C8.84507 6.22388 8.37669 4.81648 7.27149 4.81648H1.02146C0.750555 4.81648 0.490742 4.73841 0.29918 4.59944C0.107618 4.46047 0 4.27199 0 4.07546C0 3.87893 0.107618 3.69044 0.29918 3.55148C0.490742 3.41251 0.750555 3.33444 1.02146 3.33444H7.27149C8.37669 3.33444 8.84507 1.92703 7.96027 1.26476C7.76878 1.1258 7.6612 0.937355 7.6612 0.740862C7.6612 0.54437 7.76878 0.355923 7.96027 0.216961Z" fill="white"/>
</svg>
