<svg width="190" height="285" viewBox="0 0 286 285" fill="none" xmlns="http://www.w3.org/2000/svg">
<path d="M104.72 4.84313C42.432 22.5736 0 77.914 0 142.12C0 220.563 63.92 284.5 142.8 284.5C221.408 284.5 285.6 220.563 285.6 142.12C285.6 62.6014 221.136 -0.798369 141.168 0.00755998C130.016 0.00755998 113.696 2.1567 104.72 4.84313ZM162.928 62.87C174.08 68.2429 184.416 81.675 186.592 92.4207C189.312 107.196 185.504 119.554 174.624 132.449C155.856 154.477 129.744 154.477 110.976 132.449C90.576 108.539 94.928 79.5259 120.768 63.9446C131.104 57.7658 152.048 57.2285 162.928 62.87ZM192.576 159.85C214.064 168.715 228.48 189.401 228.48 211.967V225.399H142.8H57.12V211.967C57.12 189.67 71.264 168.984 92.48 159.85C106.08 153.94 178.432 153.94 192.576 159.85Z" fill="#308654"/>
</svg>
