<svg width="125" height="178" viewBox="0 0 229 178" fill="none" xmlns="http://www.w3.org/2000/svg">
<path d="M65.9694 1.79398C38.8478 4.22278 17.4946 20.9714 11.1696 44.7028C7.27342 59.3262 8.69022 78.0988 14.5598 90.5464C17.2922 96.3148 19.1138 98.9966 23.1112 103.247C34.2938 115.239 51.5484 121.311 76.1906 122.07L86.6142 122.374L86.9178 121.159C87.4744 119.135 87.3226 99.958 86.766 98.8954C86.26 98.0352 85.6528 97.934 80.3904 97.934C63.6924 97.934 53.2182 94.7968 46.033 87.561C40.5176 82.0456 37.937 75.7712 37.2286 66.056C36.2672 53.0518 38.949 43.4378 45.6282 36.202C48.2594 33.3684 49.6762 32.3564 53.5218 30.4842C61.213 26.7398 62.7816 26.4362 78.8218 26.2338L92.838 25.9808V42.4764C92.838 57.6564 92.8886 58.972 93.7488 59.3768C94.356 59.731 97.898 58.4154 107.006 54.5698C113.786 51.6856 119.555 49.0544 119.757 48.7002C119.96 48.346 120.111 37.6188 120.01 24.817L119.909 1.54098L95.115 1.49038C81.5036 1.43978 68.3476 1.59158 65.9694 1.79398Z" fill="#151515"/>
<path d="M41.8838 140.893C35.4576 143.828 37.8358 153.088 45.021 153.088C48 153 49 152.5 48.5 151C48 149.5 48 150.109 45.5776 150.406C43.0982 150.71 41.5296 149.647 40.9224 147.269C40.2646 144.536 43.5536 141.956 46.3872 142.917C47.5152 143.3 47.8674 143.4 48.31 142.462C49 141 49.0746 141.056 47 140.5C44.5562 140.011 44.5 140 41.8838 140.893Z" fill="#404040"/>
<path d="M50.334 146.51V153.088H51.599H52.864V146.51V139.932H51.599H50.334V146.51Z" fill="#404040"/>
<path d="M56.7096 141.652C55.8494 142.361 55.4952 142.968 55.8494 143.17C56.5578 143.626 59.5432 142.057 59.3408 141.349C58.9866 140.337 58.2276 140.438 56.7096 141.652Z" fill="#404040"/>
<path d="M70 141.5C70 142.562 70.321 142.968 71.3836 142.968C72.4462 142.968 72.5 142.5 72.4968 141.804C72.3956 141.096 71.9402 140.64 71.2318 140.539C70.5 140.539 70 141 70 141.5Z" fill="#404040"/>
<path d="M54.8879 149.04C54.8879 153.037 54.8879 153.088 56.1529 153.088C57.4179 153.088 57.4179 153.037 57.4179 149.04C57.4179 145.042 57.4179 144.992 56.1529 144.992C54.8879 144.992 54.8879 145.042 54.8879 149.04Z" fill="#404040"/>
<path d="M59.7962 145.346C59.5938 145.498 59.5 147.425 59.5 149.5C59.5 153.092 59.3361 153 60.4999 153C61.8435 152.912 62.14 153.255 62.0732 150.507C62 147.5 63 146.5 64.7044 147.168C65.3116 147.421 65.514 148.18 65.514 150.305C65.514 152.936 65.5646 153.088 66.779 153.088C67.9934 153.088 68 152.884 68 150C68 147.622 67.8416 146.813 67.032 146.004C65.9188 144.891 64.4514 144.688 62.9334 145.498C62 146 62 146 61.972 145.498C61.9999 145 60.4999 145 59.7962 145.346Z" fill="#404040"/>
<path d="M70.068 149.04C70.068 153.037 70.068 153.088 71.333 153.088C72.598 153.088 72.598 153.037 72.598 149.04C72.598 145.042 72.598 144.992 71.333 144.992C70.068 144.992 70.068 145.042 70.068 149.04Z" fill="#404040"/>
<path d="M84.9392 145.354C83.826 145.81 82.7128 148.542 83.067 150.111C83.6236 152.59 87.1656 154.108 88.7848 152.489C89.2402 152.033 89.392 152.033 89.392 152.489C89.392 152.843 89.9486 153.096 90.657 153.096C91.922 153.096 91.922 153.045 91.922 149.048C91.922 145.506 91.8208 145 91.0112 145C90.5052 145 89.8474 145.253 89.5438 145.557C89.139 145.961 88.886 145.961 88.6836 145.557C88.3294 145 86.103 144.848 84.9392 145.354ZM88.7848 147.479C89.1896 147.732 89.392 148.542 89.2908 149.352C89.0884 151.123 86.9846 151.967 85.922 150.5C85.3422 149.738 85.3329 148.703 86.1536 147.834C87.0138 146.923 87.7728 146.822 88.7848 147.479Z" fill="#404040"/>
<path d="M114.596 162.752V177.022L120.314 176.769C125.323 176.566 126.487 176.364 128.916 175.149C133.925 172.721 136.556 168.369 136.556 162.449C136.556 158.047 135.19 154.96 131.952 152.076C128.916 149.445 125.829 148.534 119.555 148.534H114.596V162.752ZM126.639 155.517C129.624 157.642 130.839 163.208 129.118 166.547C127.651 169.381 124.716 171.304 121.882 171.304H120.668V162.651V153.948L122.894 154.201C124.109 154.353 125.829 154.96 126.639 155.517Z" fill="#404040"/>
<path d="M179.364 155.871C179.364 159.059 179.313 159.16 178.099 159.16C176.935 159.16 176.834 159.362 176.834 161.437C176.834 163.511 176.935 163.714 178.099 163.714C179.364 163.714 179.364 163.764 179.364 168.369C179.364 172.164 179.566 173.378 180.376 174.694C181.641 176.819 184.373 177.679 187.308 176.92L189.433 176.364L188.776 174.188C188.32 172.518 187.915 172.012 186.954 171.86C185.183 171.658 184.93 171.051 184.93 167.104V163.714H186.701C188.472 163.714 188.472 163.714 188.472 161.437C188.472 159.16 188.472 159.16 186.701 159.16H184.93V155.871V152.582H182.147H179.364V155.871Z" fill="#404040"/>
<path d="M145.664 159.109C141.11 160.273 138.226 163.714 138.226 167.964C138.226 172.923 141.161 176.111 146.626 177.072C153.558 178.337 159.984 172.721 158.82 166.497C157.859 161.234 151.433 157.642 145.664 159.109ZM151.281 164.878C154.165 167.306 152.293 172.316 148.549 172.316C146.17 172.316 144.45 170.545 144.45 168.217C144.45 164.27 148.397 162.348 151.281 164.878Z" fill="#404040"/>
<path d="M167.018 159.362C163.172 160.83 160.642 164.22 160.642 168.015C160.642 170.848 161.553 172.67 163.88 174.745C166.815 177.325 170.56 177.882 174.608 176.313L175.873 175.858L174.911 173.986C173.95 172.164 173.798 172.113 171.572 172.265C168.586 172.417 166.714 170.798 166.714 168.015C166.714 165.232 168.586 163.613 171.572 163.764C173.798 163.916 173.95 163.866 174.911 162.044L175.873 160.172L174.506 159.615C172.078 158.704 169.042 158.603 167.018 159.362Z" fill="#404040"/>
<path d="M197.833 159.109C192.419 160.526 189.484 164.574 190.243 169.685C190.749 173.125 193.785 176.01 197.681 176.819C202.387 177.831 207.042 176.364 209.269 173.227C210.888 170.95 211.191 166.193 209.825 163.714C207.953 160.273 202.083 157.996 197.833 159.109ZM203.399 164.979C206.03 167.559 204.209 172.316 200.667 172.316C196.77 172.316 194.848 167.408 197.782 164.928C199.604 163.36 201.83 163.36 203.399 164.979Z" fill="#404040"/>
<path d="M223.538 159.059C222.931 159.261 221.868 159.919 221.16 160.526C219.49 161.993 219.338 161.993 219.338 160.425C219.338 159.21 219.186 159.16 216.555 159.16H213.772V168.015V176.87H216.555H219.338V172.063C219.338 166.547 220.097 164.422 222.222 163.916C222.981 163.714 224.196 163.815 225.005 164.119C226.371 164.625 226.473 164.574 227.687 162.196L228.901 159.767L227.333 159.21C225.612 158.603 225.208 158.603 223.538 159.059Z" fill="#404040"/>
<path d="M126.791 1.6422C125.728 2.553 125.677 2.8566 125.829 13.685L125.981 24.817L135.595 25.1206C145.462 25.4748 148.245 25.829 153.912 27.6C159.073 29.1686 163.121 31.5974 166.765 35.19C173.343 41.7174 176.126 50.5218 175.67 63.273C175.367 71.3184 174.608 74.658 171.875 80.224C168.232 87.6116 161.249 92.9246 151.787 95.5052C148.245 96.416 146.019 96.6184 134.33 96.8208C124.969 96.9726 120.82 97.175 120.567 97.5798C120.364 97.934 120.162 91.7608 120.162 83.9178C120.162 74.911 119.96 69.5474 119.656 69.345C119.352 69.1932 114.748 70.863 109.384 73.14C96.5317 78.5542 94.4065 79.6674 94.0523 80.9324C93.9511 81.5396 93.9005 90.85 93.9511 101.729L94.1029 121.463L111.813 121.615C133.47 121.767 150.117 121.109 156.088 119.743C177.846 114.834 194.139 100.919 200.616 81.6914C204.411 70.5088 204.765 54.3168 201.577 41.515C196.973 23.299 183.766 10.4972 163.476 4.6276C155.886 2.4012 143.236 0.781998 133.672 0.781998C128.865 0.781998 127.651 0.933798 126.791 1.6422Z" fill="#159640"/>
<path d="M0.745972 162.753V177.022L6.46377 176.769C11.4732 176.566 12.637 176.364 15.0658 175.15C20.0752 172.721 22.7064 168.369 22.7064 162.449C22.7064 158.047 21.3402 154.96 18.1018 152.076C15.0658 149.445 11.9792 148.534 5.70477 148.534H0.745972V162.753ZM12.7888 155.517C15.7742 157.642 16.9886 163.208 15.2682 166.548C13.8008 169.381 10.866 171.304 8.03237 171.304H6.81797V162.651V153.948L9.04437 154.201C10.2588 154.353 11.9792 154.96 12.7888 155.517Z" fill="#159640"/>
<path d="M29.6386 159.261C27.058 159.97 25.6412 161.083 24.275 163.461C22.7064 166.092 22.6052 169.533 24.022 172.316C26.9062 177.933 35.66 178.945 40.1634 174.188L41.3272 172.873L39.202 171.81C37.178 170.747 37.0262 170.747 36.0648 171.658C33.9396 173.581 29.082 172.215 29.082 169.685C29.082 168.875 29.588 168.774 35.407 168.774H41.732V167.256C41.732 163.663 38.949 160.223 35.2552 159.16C33.0288 158.553 31.9662 158.553 29.6386 159.261ZM35.3564 163.815C35.8118 164.422 36.166 165.131 36.166 165.333C36.166 165.586 34.5974 165.738 32.624 165.738C28.8796 165.738 28.3736 165.333 29.9422 163.613C31.1566 162.247 34.3444 162.398 35.3564 163.815Z" fill="#159640"/>
<path d="M52.3337 159.211C51.6253 159.514 50.5627 160.223 49.9555 160.779L48.7917 161.842V160.526C48.7917 159.211 48.6905 159.16 45.7557 159.16H42.7197V168.015V176.87H45.7557H48.7917V171.557C48.7917 166.548 48.8929 166.143 50.0567 164.979C51.2711 163.714 52.7891 163.461 54.6107 164.169C55.4709 164.524 55.8251 164.271 56.7359 162.5L57.9757 160.5L57.8997 168.622V176.87H60.9357H63.9717V171.051C63.9717 165.839 64.0729 165.131 65.0343 164.169C65.7933 163.41 66.4511 163.208 67.4125 163.461C69.7401 164.018 70.0437 164.979 70.0437 171.152V176.87H73.0797H76.1157V170.798C76.1157 164.979 76.1663 164.726 77.3301 163.967C78.7975 163.006 80.9733 163.41 81.6817 164.726C81.9853 165.232 82.1877 168.167 82.1877 171.253V176.87H84.9707H87.7537V169.735C87.7537 165.586 87.5007 162.196 87.1971 161.589C86.8935 161.032 85.6285 160.121 84.3635 159.565C81.5805 158.35 79.3541 158.654 77.1277 160.476L75.6097 161.791L74.0917 160.526C71.4605 158.3 67.3113 158.3 64.8825 160.526C64.0223 161.285 63.9717 161.235 63.9717 160.223C63.9717 159.16 63.7693 159.109 60.5815 159.211C58.4805 159.211 56.3311 159.16 55.3697 158.958C54.4083 158.806 53.0421 158.907 52.3337 159.211Z" fill="#159640"/>
<path d="M94.609 159.413C87.9298 161.842 86.8672 172.164 92.9392 175.807C95.6716 177.528 98.1004 177.629 100.985 176.263C103.262 175.099 103.464 175.048 103.464 175.959C103.464 176.718 103.869 176.87 106.247 176.87H109.03V168.015V159.16H106.247C104.122 159.16 103.464 159.312 103.464 159.919C103.464 160.88 103.211 160.88 101.794 159.97C100.074 158.806 96.886 158.553 94.609 159.413ZM102.199 164.979C104.83 167.56 103.009 172.316 99.4666 172.316C97.139 172.316 95.1656 170.343 95.1656 168.015C95.1656 164.271 99.6184 162.348 102.199 164.979Z" fill="#159640"/>
<path d="M77.104 145.221C74.9778 145.862 74 147.344 74 149C74 150.237 74.0825 151.029 75.3695 151.934C76.9921 153.06 79.0624 153.303 81.3006 152.619L82 152.42L81.5789 151.545C81.1579 150.455 80.4952 150.817 79.622 150.852C77.9713 150.918 76.8 150.215 76.8 149C76.8 147.785 77.9713 147.076 79.622 147.142C80.8529 147.209 80.9369 147.186 81.4684 146.392L82 145.574L81.2446 145.332C79.9017 144.934 78.2231 144.89 77.104 145.221Z" fill="#404040"/>
</svg>
