<svg width="185" height="168" viewBox="0 0 549 168" fill="none" xmlns="http://www.w3.org/2000/svg">
<path d="M78.3769 0.495791C66.5859 1.92574 50.6738 6.98553 40.6 12.7053C36.25 15.2352 28.6946 20.955 24.0011 25.5748C5.79952 43.1741 -2.09928 67.2632 1.10603 95.2021C4.76924 127.541 21.1392 148.22 51.2462 158.78C63.953 163.179 77.0032 165.379 95.6626 166.149L111.804 166.809L112.491 164.169C113.635 160.1 113.406 137.99 112.147 135.791C111.231 134.141 108.827 133.701 97.6087 133.041C68.1886 131.391 54.4515 124.901 46.4383 108.952C35.3342 87.0624 40.1421 56.0436 56.2831 44.1641C67.7307 35.8044 77.919 33.3845 102.76 33.3845H121.305V57.5836C121.305 70.8931 121.649 81.7826 122.221 81.7826C125.042 82.8826 158.24 69.1331 159.384 66.3833C159.842 65.6133 160.227 50.7638 160.227 33.6045C160.227 8.0855 159.998 2.36571 158.624 1.92572C154.617 0.495778 88.6797 -0.714162 78.3769 0.495791Z" fill="#151515"/>
<path d="M169.188 1.06432C168.73 1.39431 168.386 8.76403 168.386 17.3437V32.9631L183.154 33.7331C207.194 34.943 219.099 39.0129 228.944 49.2425C237.987 58.8121 239.819 64.7519 239.934 83.8911C239.934 98.6305 239.705 100.39 236.957 106.66C231.92 118.21 223.449 125.579 210.17 130.309C204.446 132.289 199.867 132.729 181.78 133.279L160.373 133.939V114.36C160.373 99.1805 160.03 94.8907 158.885 94.8907C156.669 94.3407 149.228 95.4407 140.07 99.8405L135.491 102.04L131.484 104.24L126.905 106.99L123.471 109.19L123.169 137.349V165.838L154.077 166.828C198.837 168.148 214.177 166.388 233.065 157.698C254.93 147.689 269.468 132.069 276.795 110.84C279.656 102.7 279.885 100.61 280 82.7912C280 65.6318 279.771 62.6619 277.367 55.2922C272.902 41.8727 268.438 34.613 258.936 25.4834C245.199 12.1739 228.715 5.35416 202.729 1.94429C190.251 0.294356 170.447 -0.255626 169.188 1.06432Z" fill="#159640"/>
<path d="M295.09 68.5687V90.8082L304.485 90.4138C312.716 90.0984 314.628 89.7829 318.619 87.8902C326.849 84.1048 331.173 77.3225 331.173 68.0955C331.173 61.2343 328.928 56.4237 323.607 51.9285C318.619 47.8276 313.547 46.408 303.238 46.408H295.09V68.5687ZM314.877 57.2912C319.782 60.6034 321.778 69.2784 318.951 74.4834C316.54 78.8998 311.718 81.8966 307.062 81.8966H305.067V68.4109V54.8464L308.725 55.2407C310.72 55.4773 313.547 56.4237 314.877 57.2912Z" fill="#159640"/>
<path d="M342.563 63.127C338.323 64.2311 335.995 65.9661 333.75 69.6727C331.173 73.7736 331.006 79.1363 333.334 83.4738C338.073 92.2277 352.457 93.8049 359.856 86.3918L361.768 84.3413L358.276 82.6852C354.951 81.029 354.701 81.029 353.122 82.4486C349.63 85.4454 341.648 83.3161 341.648 79.3729C341.648 78.1111 342.48 77.9534 352.041 77.9534H362.433V75.5875C362.433 69.9882 357.861 64.6254 351.792 62.9693C348.133 62.0229 346.387 62.0229 342.563 63.127ZM351.958 70.2247C352.706 71.1711 353.288 72.2752 353.288 72.5907C353.288 72.985 350.711 73.2216 347.468 73.2216C341.316 73.2216 340.484 72.5907 343.062 69.9093C345.057 67.78 350.295 68.0166 351.958 70.2247Z" fill="#159640"/>
<path d="M379.853 63.0481C378.689 63.5213 376.943 64.6254 375.946 65.4929L374.033 67.149V65.0986C374.033 63.0481 373.867 62.9693 369.045 62.9693H364.057V76.7704V90.5715H369.045H374.033V82.2908C374.033 74.4833 374.2 73.8524 376.112 72.0386C378.107 70.067 380.601 69.6727 383.594 70.7767C385.008 71.3288 385.59 70.9345 387.086 68.1742L389.123 65.0577L388.999 77.7167V90.5715H393.987H398.975V81.5022C398.975 73.3792 399.142 72.2752 400.721 70.7767C401.968 69.5938 403.049 69.2783 404.629 69.6727C408.453 70.5402 408.952 72.0386 408.952 81.6599V90.5715H413.941H418.929V81.1079C418.929 72.0386 419.012 71.6442 420.924 70.4613C423.335 68.9629 426.91 69.5938 428.074 71.6442C428.573 72.4329 428.906 77.007 428.906 81.8176V90.5715H433.479H438.051V79.4517C438.051 72.9849 437.636 67.7011 437.137 66.7547C436.638 65.8872 434.559 64.4677 432.481 63.6002C427.908 61.7074 424.25 62.1806 420.592 65.0197L418.098 67.0702L415.603 65.0986C411.28 61.6286 404.463 61.6286 400.472 65.0986C399.059 66.2815 398.975 66.2027 398.975 64.6254C398.975 62.9693 398.643 62.8904 393.405 63.0481C389.953 63.0481 386.421 62.9693 384.842 62.6538C383.262 62.4172 381.017 62.5749 379.853 63.0481Z" fill="#159640"/>
<path d="M449.315 63.3636C438.34 67.1491 436.594 83.2372 446.571 88.9154C451.061 91.5968 455.052 91.7545 459.79 89.6252C463.532 87.8113 463.864 87.7325 463.864 89.152C463.864 90.335 464.529 90.5715 468.437 90.5715H473.01V76.7704V62.9693H468.437C464.945 62.9693 463.864 63.2059 463.864 64.1523C463.864 65.6507 463.449 65.6507 461.121 64.2311C458.294 62.4173 453.056 62.0229 449.315 63.3636ZM461.786 72.0386C466.109 76.0607 463.116 83.4738 457.296 83.4738C453.472 83.4738 450.229 80.3982 450.229 76.7704C450.229 70.9345 457.546 67.9377 461.786 72.0386Z" fill="#159640"/>
<path d="M359.586 125.931V149.657L369.042 149.237C377.326 148.9 379.251 148.563 383.268 146.544C391.553 142.506 395.904 135.27 395.904 125.426C395.904 118.106 393.645 112.973 388.289 108.178C383.268 103.802 378.163 102.288 367.787 102.288H359.586V125.931ZM379.502 113.899C384.44 117.433 386.448 126.688 383.603 132.241C381.176 136.952 376.322 140.15 371.636 140.15H369.628V125.762V111.291L373.31 111.711C375.318 111.964 378.163 112.973 379.502 113.899Z" fill="#404040"/>
<path d="M466.7 114.488C466.7 119.789 466.616 119.957 464.608 119.957C462.683 119.957 462.516 120.293 462.516 123.743C462.516 127.193 462.683 127.529 464.608 127.529C466.7 127.529 466.7 127.613 466.7 135.27C466.7 141.58 467.035 143.599 468.374 145.787C470.466 149.321 474.985 150.751 479.838 149.489L483.353 148.563L482.265 144.946C481.512 142.169 480.842 141.328 479.252 141.075C476.324 140.739 475.905 139.729 475.905 133.166V127.529H478.834C481.763 127.529 481.763 127.529 481.763 123.743C481.763 119.957 481.763 119.957 478.834 119.957H475.905V114.488V109.019H471.303H466.7V114.488Z" fill="#404040"/>
<path d="M410.967 119.873C403.436 121.808 398.666 127.529 398.666 134.597C398.666 142.842 403.519 148.143 412.557 149.741C424.022 151.845 434.649 142.506 432.725 132.157C431.135 123.406 420.507 117.433 410.967 119.873ZM420.256 129.464C425.026 133.503 421.93 141.832 415.737 141.832C411.804 141.832 408.959 138.888 408.959 135.017C408.959 128.455 415.486 125.257 420.256 129.464Z" fill="#404040"/>
<path d="M446.281 120.293C439.921 122.733 435.737 128.371 435.737 134.681C435.737 139.393 437.243 142.422 441.093 145.871C445.947 150.162 452.139 151.088 458.834 148.479L460.926 147.722L459.336 144.609C457.746 141.58 457.495 141.496 453.813 141.748C448.875 142.001 445.779 139.308 445.779 134.681C445.779 130.053 448.875 127.361 453.813 127.613C457.495 127.866 457.746 127.782 459.336 124.753L460.926 121.64L458.666 120.714C454.65 119.2 449.629 119.031 446.281 120.293Z" fill="#404040"/>
<path d="M497.244 119.873C488.29 122.228 483.437 128.959 484.692 137.457C485.529 143.179 490.55 147.974 496.993 149.321C504.776 151.003 512.475 148.563 516.157 143.347C518.835 139.561 519.337 131.652 517.077 127.529C513.981 121.808 504.274 118.022 497.244 119.873ZM506.449 129.633C510.801 133.924 507.788 141.832 501.931 141.832C495.487 141.832 492.307 133.671 497.161 129.548C500.173 126.94 503.855 126.94 506.449 129.633Z" fill="#404040"/>
<path d="M539.755 119.789C538.751 120.125 536.994 121.219 535.822 122.229C533.061 124.669 532.81 124.669 532.81 122.06C532.81 120.041 532.559 119.957 528.207 119.957H523.604V134.681V149.405H528.207H532.81V141.412C532.81 132.241 534.065 128.707 537.58 127.866C538.835 127.529 540.843 127.698 542.182 128.202C544.442 129.044 544.609 128.96 546.617 125.005L548.626 120.967L546.032 120.041C543.186 119.031 542.517 119.031 539.755 119.789Z" fill="#404040"/>
<path d="M345.913 28.8024C335.017 33.9872 339.05 50.3458 351.232 50.3458C356.283 50.1904 357.979 49.307 357.131 46.6571C356.283 44.0071 356.283 45.0841 352.176 45.6081C347.972 46.1444 345.313 44.2672 344.283 40.0658C343.168 35.2386 348.744 30.6797 353.549 32.3781C355.461 33.0542 356.058 33.2302 356.809 31.5736C357.979 28.9907 358.105 29.0907 354.588 28.1074C350.444 27.2442 350.349 27.2241 345.913 28.8024Z" fill="#404040"/>
<path d="M360.24 38.7249V50.3458H362.385H364.53V38.7249V27.104H362.385H360.24V38.7249Z" fill="#404040"/>
<path d="M371.051 30.1433C369.592 31.3948 368.992 32.4675 369.592 32.8251C370.793 33.6296 375.855 30.8585 375.512 29.607C374.911 27.8191 373.624 27.9979 371.051 30.1433Z" fill="#404040"/>
<path d="M393.585 29.8741C393.585 31.7513 394.129 32.4675 395.93 32.4675C397.732 32.4675 397.823 31.6407 397.818 30.4115C397.646 29.16 396.874 28.3555 395.673 28.1767C394.432 28.1767 393.585 28.9907 393.585 29.8741Z" fill="#404040"/>
<path d="M367.962 43.1945C367.962 50.2564 367.962 50.3458 370.107 50.3458C372.251 50.3458 372.251 50.2564 372.251 43.1945C372.251 36.1326 372.251 36.0432 370.107 36.0432C367.962 36.0432 367.962 36.1326 367.962 43.1945Z" fill="#404040"/>
<path d="M376.284 36.6689C375.941 36.9371 375.782 40.3421 375.782 44.0071C375.782 50.3539 375.504 50.1904 377.477 50.1904C379.755 50.0349 380.258 50.6409 380.144 45.7869C380.02 40.4739 381.716 38.7072 384.606 39.887C385.635 40.334 385.978 41.6748 385.978 45.4293C385.978 50.0777 386.064 50.3458 388.123 50.3458C390.182 50.3458 390.194 49.9858 390.194 44.8905C390.194 40.689 389.925 39.2613 388.552 37.831C386.665 35.8644 384.177 35.5068 381.603 36.9371C380.02 37.8239 380.02 37.8239 379.973 36.9371C380.02 36.0573 377.477 36.0573 376.284 36.6689Z" fill="#404040"/>
<path d="M393.7 43.1945C393.7 50.2564 393.7 50.3458 395.845 50.3458C397.99 50.3458 397.99 50.2564 397.99 43.1945C397.99 36.1326 397.99 36.0432 395.845 36.0432C393.7 36.0432 393.7 36.1326 393.7 43.1945Z" fill="#404040"/>
<path d="M418.915 36.6836C417.027 37.4881 415.14 42.3152 415.74 45.0864C416.684 49.4666 422.689 52.1483 425.435 49.2878C426.207 48.4833 426.464 48.4833 426.464 49.2878C426.464 49.9135 427.408 50.3605 428.609 50.3605C430.754 50.3605 430.754 50.2711 430.754 43.2092C430.754 36.9517 430.582 36.0578 429.21 36.0578C428.352 36.0578 427.236 36.5048 426.722 37.0411C426.035 37.7563 425.606 37.7563 425.263 37.0411C424.663 36.0578 420.888 35.7896 418.915 36.6836ZM425.435 40.438C426.121 40.885 426.464 42.3152 426.293 43.7455C425.95 46.8742 422.383 48.3667 420.581 45.7743C419.598 44.4274 419.582 42.5989 420.974 41.0638C422.432 39.4547 423.719 39.2759 425.435 40.438Z" fill="#404040"/>
<path d="M405.63 36.4484C402.025 37.5797 400.367 40.1984 400.367 43.1243C400.367 45.3089 400.507 46.7085 402.689 48.308C405.44 50.2976 408.95 50.7267 412.745 49.5174L413.931 49.1662L413.217 47.6211C412.503 45.6939 411.379 46.3345 409.899 46.3964C407.1 46.5134 405.114 45.2699 405.114 43.1243C405.114 40.9786 407.1 39.7254 409.899 39.8424C411.986 39.9595 412.128 39.9204 413.03 38.516L413.931 37.0726L412.65 36.6434C410.373 35.9412 407.527 35.8632 405.63 36.4484Z" fill="#404040"/>
</svg>
