<svg width="177" height="135" viewBox="0 0 177 135" fill="none" xmlns="http://www.w3.org/2000/svg">
<path d="M50.5995 0.774101C29.5589 2.63214 12.9934 15.4449 8.08655 33.5995C5.06392 44.7864 6.16306 59.1475 10.7166 68.67C12.8364 73.0828 14.2496 75.1344 17.3507 78.386C26.026 87.5601 39.4119 92.2052 58.529 92.7858L66.6155 93.0181L66.851 92.089C67.2828 90.5407 67.1651 75.8699 66.7332 75.057C66.3407 74.399 65.8696 74.3215 61.7871 74.3215C48.8331 74.3215 40.7073 71.9216 35.1331 66.3862C30.8543 62.1669 28.8523 57.3669 28.3028 49.9348C27.5569 39.9865 29.6374 32.6318 34.8191 27.0963C36.8603 24.9286 37.9595 24.1544 40.9428 22.7222C46.9096 19.8577 48.1265 19.6255 60.5702 19.4706L71.4438 19.2771V31.8963C71.4438 43.509 71.4831 44.5155 72.1504 44.8251C72.6215 45.0961 75.3693 44.0897 82.4352 41.1478C87.6953 38.9413 92.1704 36.9285 92.3274 36.6575C92.4844 36.3865 92.6022 28.1802 92.5237 18.3868L92.4452 0.580559L73.2103 0.541847C62.6507 0.503136 52.4445 0.619263 50.5995 0.774101Z" fill="#A8EBC4"/>
<path d="M31.9142 107.185C26.9288 109.431 28.7738 116.514 34.348 116.514C36.659 116.447 37.4348 116.065 37.0469 114.917C36.659 113.77 36.659 114.236 34.7798 114.463C32.8563 114.695 31.6394 113.882 31.1683 112.063C30.658 109.973 33.2096 107.998 35.4078 108.734C36.283 109.027 36.5562 109.103 36.8995 108.385C37.4348 107.267 37.4927 107.31 35.8833 106.885C33.9874 106.511 33.9438 106.502 31.9142 107.185Z" fill="white"/>
<path d="M38.4697 111.482V116.514H39.4511H40.4325V111.482V106.45H39.4511H38.4697V111.482Z" fill="white"/>
<path d="M43.4159 107.766C42.7485 108.308 42.4737 108.773 42.7485 108.927C43.2981 109.276 45.6141 108.076 45.4571 107.534C45.1823 106.76 44.5935 106.837 43.4159 107.766Z" fill="white"/>
<path d="M53.7264 107.649C53.7264 108.462 53.9754 108.772 54.7997 108.772C55.6241 108.772 55.6658 108.414 55.6633 107.882C55.5848 107.34 55.2315 106.992 54.682 106.914C54.1143 106.914 53.7264 107.267 53.7264 107.649Z" fill="white"/>
<path d="M42.0026 113.418C42.0026 116.476 42.0026 116.514 42.984 116.514C43.9654 116.514 43.9654 116.476 43.9654 113.418C43.9654 110.36 43.9654 110.321 42.984 110.321C42.0026 110.321 42.0026 110.36 42.0026 113.418Z" fill="white"/>
<path d="M45.8104 110.592C45.6534 110.708 45.5806 112.182 45.5806 113.77C45.5806 116.518 45.4535 116.447 46.3564 116.447C47.3987 116.38 47.6287 116.642 47.5768 114.54C47.5201 112.24 48.2959 111.475 49.6181 111.985C50.0891 112.179 50.2462 112.76 50.2462 114.385C50.2462 116.398 50.2854 116.514 51.2275 116.514C52.1697 116.514 52.1748 116.358 52.1748 114.152C52.1748 112.333 52.0519 111.714 51.4238 111.095C50.5602 110.244 49.4218 110.089 48.2442 110.708C47.5201 111.092 47.5201 111.092 47.4983 110.708C47.52 110.327 46.3564 110.327 45.8104 110.592Z" fill="white"/>
<path d="M53.7791 113.418C53.7791 116.476 53.7791 116.514 54.7605 116.514C55.7419 116.514 55.7419 116.476 55.7419 113.418C55.7419 110.36 55.7419 110.321 54.7605 110.321C53.7791 110.321 53.7791 110.36 53.7791 113.418Z" fill="white"/>
<path d="M65.316 110.598C64.4524 110.947 63.5888 113.037 63.8636 114.237C64.2954 116.134 67.0432 117.295 68.2994 116.056C68.6527 115.708 68.7704 115.708 68.7704 116.056C68.7704 116.327 69.2022 116.521 69.7518 116.521C70.7332 116.521 70.7332 116.482 70.7332 113.424C70.7332 110.714 70.6546 110.327 70.0266 110.327C69.634 110.327 69.1237 110.521 68.8882 110.753C68.5741 111.063 68.3779 111.063 68.2208 110.753C67.9461 110.327 66.2189 110.211 65.316 110.598ZM68.2994 112.224C68.6134 112.418 68.7704 113.037 68.6919 113.656C68.5349 115.011 66.9028 115.657 66.0784 114.535C65.6286 113.952 65.6214 113.16 66.2581 112.495C66.9254 111.798 67.5143 111.721 68.2994 112.224Z" fill="white"/>
<path d="M59.2376 110.496C57.5881 110.986 56.8295 112.12 56.8295 113.387C56.8295 114.333 56.8936 114.939 57.8919 115.632C59.1508 116.494 60.7569 116.679 62.4932 116.156L63.0358 116.004L62.7092 115.335C62.3825 114.5 61.8684 114.777 61.191 114.804C59.9104 114.855 59.0017 114.316 59.0017 113.387C59.0017 112.458 59.9104 111.915 61.191 111.966C62.146 112.017 62.2111 112 62.6234 111.392L63.0358 110.767L62.4498 110.581C61.408 110.277 60.1058 110.243 59.2376 110.496Z" fill="white"/>
<path d="M88.3233 123.908V134.824L92.7591 134.63C96.6453 134.476 97.5482 134.321 99.4324 133.392C103.319 131.534 105.36 128.205 105.36 123.676C105.36 120.308 104.3 117.947 101.788 115.74C99.4324 113.727 97.0379 113.031 92.1703 113.031H88.3233V123.908ZM97.6659 118.373C99.982 119.998 100.924 124.256 99.5894 126.811C98.451 128.979 96.1743 130.45 93.976 130.45H93.0339V123.831V117.173L94.7611 117.366C95.7032 117.482 97.0379 117.947 97.6659 118.373Z" fill="white"/>
<path d="M138.569 118.643C138.569 121.082 138.53 121.159 137.588 121.159C136.685 121.159 136.607 121.314 136.607 122.901C136.607 124.488 136.685 124.643 137.588 124.643C138.569 124.643 138.569 124.682 138.569 128.204C138.569 131.108 138.727 132.037 139.355 133.043C140.336 134.669 142.456 135.327 144.732 134.746L146.381 134.321L145.871 132.656C145.518 131.379 145.204 130.992 144.458 130.875C143.084 130.721 142.888 130.256 142.888 127.237V124.643H144.261C145.635 124.643 145.635 124.643 145.635 122.901C145.635 121.159 145.635 121.159 144.261 121.159H142.888V118.643V116.127H140.729H138.569V118.643Z" fill="white"/>
<path d="M112.426 121.121C108.893 122.011 106.655 124.643 106.655 127.895C106.655 131.688 108.932 134.127 113.172 134.863C118.55 135.83 123.535 131.534 122.632 126.772C121.886 122.747 116.901 119.998 112.426 121.121ZM116.783 125.534C119.021 127.392 117.568 131.224 114.663 131.224C112.818 131.224 111.484 129.869 111.484 128.088C111.484 125.069 114.546 123.598 116.783 125.534Z" fill="white"/>
<path d="M128.991 121.314C126.008 122.437 124.045 125.03 124.045 127.934C124.045 130.101 124.752 131.495 126.558 133.082C128.834 135.056 131.739 135.482 134.88 134.282L135.861 133.934L135.115 132.501C134.369 131.108 134.251 131.069 132.524 131.185C130.208 131.301 128.756 130.063 128.756 127.934C128.756 125.805 130.208 124.566 132.524 124.682C134.251 124.798 134.369 124.76 135.115 123.366L135.861 121.934L134.801 121.508C132.917 120.811 130.562 120.734 128.991 121.314Z" fill="white"/>
<path d="M152.897 121.121C148.697 122.205 146.42 125.301 147.009 129.211C147.402 131.843 149.757 134.05 152.78 134.669C156.43 135.443 160.042 134.321 161.769 131.921C163.025 130.179 163.261 126.54 162.201 124.643C160.748 122.011 156.195 120.269 152.897 121.121ZM157.216 125.611C159.257 127.585 157.844 131.224 155.096 131.224C152.073 131.224 150.581 127.469 152.858 125.572C154.271 124.372 155.999 124.372 157.216 125.611Z" fill="white"/>
<path d="M172.839 121.082C172.368 121.237 171.544 121.74 170.994 122.205C169.699 123.327 169.581 123.327 169.581 122.127C169.581 121.198 169.463 121.16 167.422 121.16H165.263V127.934V134.708H167.422H169.581V131.03C169.581 126.811 170.17 125.185 171.818 124.798C172.407 124.643 173.349 124.721 173.977 124.953C175.037 125.34 175.116 125.301 176.058 123.482L177 121.624L175.783 121.198C174.448 120.734 174.134 120.734 172.839 121.082Z" fill="white"/>
<path d="M97.7838 0.658012C96.9594 1.35478 96.9202 1.58704 97.0379 9.8708L97.1557 18.3868L104.614 18.6191C112.269 18.89 114.428 19.161 118.824 20.5158C122.828 21.7158 125.969 23.5738 128.795 26.3222C133.898 31.3157 136.057 38.0511 135.704 47.8058C135.468 53.9605 134.88 56.5154 132.76 60.7734C129.933 66.4249 124.516 70.4894 117.176 72.4635C114.428 73.1603 112.701 73.3151 103.633 73.47C96.3706 73.5861 93.1517 73.7409 92.9554 74.0506C92.7984 74.3216 92.6414 69.5991 92.6414 63.5991C92.6414 56.7089 92.4844 52.6057 92.2488 52.4509C92.0133 52.3348 88.4411 53.6122 84.2801 55.3541C74.3094 59.496 72.6607 60.3476 72.3859 61.3153C72.3074 61.7798 72.2681 68.9023 72.3074 77.2248L72.4252 92.3213L86.1643 92.4375C102.965 92.5536 115.88 92.0504 120.512 91.0052C137.392 87.2504 150.032 76.6054 155.057 61.8959C158.001 53.3412 158.275 40.9543 155.802 31.1608C152.23 17.2255 141.985 7.43212 126.244 2.94186C120.355 1.23866 110.542 -3.8147e-05 103.122 -3.8147e-05C99.3932 -3.8147e-05 98.4511 0.116089 97.7838 0.658012Z" fill="#159640"/>
<path d="M0 123.908V134.824L4.4358 134.63C8.32202 134.476 9.22488 134.321 11.1091 133.392C14.9953 131.534 17.0366 128.205 17.0366 123.676C17.0366 120.308 15.9767 117.947 13.4644 115.74C11.1091 113.727 8.71457 113.031 3.84697 113.031H0V123.908ZM9.34265 118.373C11.6587 119.998 12.6008 124.256 11.2661 126.811C10.1277 128.979 7.85097 130.45 5.65269 130.45H4.71058V123.831V117.173L6.43779 117.366C7.37991 117.482 8.71457 117.947 9.34265 118.373Z" fill="#159640"/>
<path d="M22.4145 121.237C20.4125 121.779 19.3134 122.631 18.2535 124.45C17.0366 126.463 16.9581 129.095 18.0572 131.224C20.2948 135.521 27.0859 136.295 30.5795 132.656L31.4824 131.65L29.8337 130.837C28.2635 130.024 28.1457 130.024 27.3999 130.721C25.7512 132.192 21.9827 131.147 21.9827 129.211C21.9827 128.592 22.3753 128.514 26.8896 128.514H31.7964V127.353C31.7964 124.605 29.6374 121.973 26.7718 121.16C25.0446 120.695 24.2203 120.695 22.4145 121.237ZM26.8503 124.721C27.2036 125.185 27.4784 125.727 27.4784 125.882C27.4784 126.076 26.2615 126.192 24.7306 126.192C21.8257 126.192 21.4332 125.882 22.6501 124.566C23.5922 123.521 26.0652 123.637 26.8503 124.721Z" fill="#159640"/>
<path d="M40.0211 121.198C39.4715 121.431 38.6472 121.972 38.1761 122.398L37.2733 123.211V122.205C37.2733 121.198 37.1948 121.16 34.918 121.16H32.5627V127.934V134.708H34.918H37.2733V130.643C37.2733 126.811 37.3518 126.501 38.2546 125.611C39.1967 124.643 40.3744 124.45 41.7876 124.992C42.4549 125.263 42.7297 125.069 43.4363 123.714L44.3981 122.185L44.3391 128.398V134.708H46.6944H49.0497V130.256C49.0497 126.269 49.1282 125.727 49.8741 124.992C50.4629 124.411 50.9732 124.256 51.719 124.45C53.5248 124.876 53.7603 125.611 53.7603 130.334V134.708H56.1156H58.4709V130.063C58.4709 125.611 58.5101 125.418 59.413 124.837C60.5514 124.101 62.2393 124.411 62.7889 125.418C63.0244 125.805 63.1814 128.05 63.1814 130.411V134.708H65.3405H67.4995V129.25C67.4995 126.076 67.3032 123.482 67.0677 123.018C66.8321 122.592 65.8508 121.895 64.8694 121.469C62.7104 120.54 60.9832 120.772 59.256 122.166L58.0783 123.172L56.9007 122.205C54.8594 120.502 51.6405 120.502 49.7563 122.205C49.089 122.785 49.0497 122.747 49.0497 121.972C49.0497 121.16 48.8927 121.121 46.4196 121.198C44.7897 121.198 43.1222 121.16 42.3764 121.005C41.6305 120.889 40.5707 120.966 40.0211 121.198Z" fill="#159640"/>
<path d="M72.8177 121.353C67.6361 123.211 66.8117 131.108 71.5223 133.895C73.6421 135.211 75.5263 135.289 77.7638 134.243C79.5303 133.353 79.6873 133.314 79.6873 134.011C79.6873 134.592 80.0014 134.708 81.8463 134.708H84.0053V127.934V121.16H81.8463C80.1976 121.16 79.6873 121.276 79.6873 121.74C79.6873 122.476 79.491 122.476 78.3919 121.779C77.0572 120.889 74.5842 120.695 72.8177 121.353ZM78.7059 125.611C80.7472 127.585 79.334 131.224 76.5862 131.224C74.7805 131.224 73.2495 129.714 73.2495 127.934C73.2495 125.069 76.7039 123.598 78.7059 125.611Z" fill="#159640"/>
</svg>
